<svg width="739" height="189" viewBox="0 0 739 189" fill="none" xmlns="http://www.w3.org/2000/svg">
<path d="M79.9531 79.9062L77.1875 81.7344C75.5 79.2344 73.2969 77.2656 70.5781 75.8281C67.8906 74.3594 64.9688 73.625 61.8125 73.625C56.6875 73.625 52.3125 75.4375 48.6875 79.0625C45.0625 82.6875 43.25 87.0625 43.25 92.1875C43.25 97.3125 45.0625 101.688 48.6875 105.312C52.3125 108.938 56.6875 110.75 61.8125 110.75C64.9688 110.75 67.8906 110.016 70.5781 108.547C73.2969 107.078 75.5 105.094 77.1875 102.594L79.9062 104.562C77.9062 107.5 75.3125 109.828 72.125 111.547C68.9375 113.266 65.5 114.125 61.8125 114.125C58.8438 114.125 56 113.547 53.2812 112.391C50.5938 111.234 48.2656 109.672 46.2969 107.703C44.3281 105.734 42.7656 103.406 41.6094 100.719C40.4531 98 39.875 95.1562 39.875 92.1875C39.875 89.2188 40.4531 86.3906 41.6094 83.7031C42.7656 80.9844 44.3281 78.6406 46.2969 76.6719C48.2656 74.7031 50.5938 73.1406 53.2812 71.9844C56 70.8281 58.8438 70.25 61.8125 70.25C65.5312 70.25 68.9844 71.125 72.1719 72.875C75.3594 74.5938 77.9531 76.9375 79.9531 79.9062ZM85.5312 76.0625L82.7188 77.8906C80.4062 74.5156 77.4062 71.8438 73.7188 69.875C70.0625 67.875 66.0938 66.875 61.8125 66.875C57.2188 66.875 52.9844 68.0156 49.1094 70.2969C45.2344 72.5469 42.1562 75.6094 39.875 79.4844C37.625 83.3594 36.5 87.5938 36.5 92.1875C36.5 96.7812 37.625 101.016 39.875 104.891C42.1562 108.766 45.2344 111.844 49.1094 114.125C52.9844 116.375 57.2188 117.5 61.8125 117.5C66.0938 117.5 70.0781 116.5 73.7656 114.5C77.4531 112.5 80.4531 109.797 82.7656 106.391L85.5312 108.312C82.9062 112.188 79.5 115.25 75.3125 117.5C71.1562 119.75 66.6562 120.875 61.8125 120.875C56.625 120.875 51.8281 119.594 47.4219 117.031C43.0156 114.469 39.5312 110.984 36.9688 106.578C34.4062 102.172 33.125 97.375 33.125 92.1875C33.125 87 34.4062 82.2031 36.9688 77.7969C39.5312 73.3906 43.0156 69.9062 47.4219 67.3438C51.8281 64.7812 56.625 63.5 61.8125 63.5C66.6562 63.5 71.1562 64.625 75.3125 66.875C79.5 69.125 82.9062 72.1875 85.5312 76.0625ZM91.1562 72.3125L88.3438 74.1406C85.4062 69.8281 81.5938 66.4219 76.9062 63.9219C72.25 61.3906 67.2188 60.125 61.8125 60.125C57.4688 60.125 53.3125 60.9688 49.3438 62.6562C45.375 64.3438 41.9531 66.625 39.0781 69.5C36.2344 72.3438 33.9688 75.75 32.2812 79.7188C30.5938 83.6875 29.75 87.8438 29.75 92.1875C29.75 96.5312 30.5938 100.688 32.2812 104.656C33.9688 108.625 36.2344 112.047 39.0781 114.922C41.9531 117.766 45.375 120.031 49.3438 121.719C53.3125 123.406 57.4688 124.25 61.8125 124.25C67.25 124.25 72.2969 122.984 76.9531 120.453C81.6094 117.922 85.4062 114.5 88.3438 110.188L91.0625 112.203C87.8125 116.953 83.6094 120.719 78.4531 123.5C73.3281 126.25 67.7812 127.625 61.8125 127.625C55.4062 127.625 49.4844 126.047 44.0469 122.891C38.6094 119.703 34.2969 115.391 31.1094 109.953C27.9531 104.516 26.375 98.5938 26.375 92.1875C26.375 85.7812 27.9531 79.8594 31.1094 74.4219C34.2969 68.9844 38.6094 64.6875 44.0469 61.5312C49.4844 58.3438 55.4062 56.75 61.8125 56.75C67.8125 56.75 73.3906 58.1562 78.5469 60.9688C83.7031 63.75 87.9062 67.5312 91.1562 72.3125ZM96.6875 68.4688L93.875 70.2969C90.3125 65.0781 85.7031 60.9531 80.0469 57.9219C74.4219 54.8906 68.3438 53.375 61.8125 53.375C56.5625 53.375 51.5312 54.4062 46.7188 56.4688C41.9375 58.5 37.8125 61.25 34.3438 64.7188C30.875 68.1875 28.1094 72.3281 26.0469 77.1406C24.0156 81.9219 23 86.9375 23 92.1875C23 97.4375 24.0156 102.469 26.0469 107.281C28.1094 112.062 30.875 116.188 34.3438 119.656C37.8125 123.125 41.9375 125.891 46.7188 127.953C51.5312 129.984 56.5625 131 61.8125 131C68.3438 131 74.4375 129.469 80.0938 126.406C85.75 123.344 90.3594 119.203 93.9219 113.984L96.6406 116.047C92.7656 121.672 87.7656 126.141 81.6406 129.453C75.5156 132.734 68.9062 134.375 61.8125 134.375C56.0938 134.375 50.625 133.25 45.4062 131C40.2188 128.781 35.7344 125.797 31.9531 122.047C28.2031 118.266 25.2031 113.781 22.9531 108.594C20.7344 103.375 19.625 97.9062 19.625 92.1875C19.625 86.4688 20.7344 81.0156 22.9531 75.8281C25.2031 70.6094 28.2031 66.125 31.9531 62.375C35.7344 58.5938 40.2188 55.5938 45.4062 53.375C50.625 51.125 56.0938 50 61.8125 50C68.9375 50 75.5625 51.6562 81.6875 54.9688C87.8125 58.2812 92.8125 62.7812 96.6875 68.4688ZM128.984 87.7344C126.359 90.3594 125.047 93.5312 125.047 97.25C125.047 100.969 126.359 104.156 128.984 106.812C131.641 109.438 134.828 110.75 138.547 110.75C142.266 110.75 145.438 109.438 148.062 106.812C150.719 104.156 152.047 100.969 152.047 97.25C152.047 93.5312 150.719 90.3594 148.062 87.7344C145.438 85.0781 142.266 83.75 138.547 83.75C134.828 83.75 131.641 85.0781 128.984 87.7344ZM126.594 109.203C123.312 105.891 121.672 101.906 121.672 97.25C121.672 92.5938 123.312 88.625 126.594 85.3438C129.906 82.0312 133.891 80.375 138.547 80.375C143.203 80.375 147.172 82.0312 150.453 85.3438C153.766 88.625 155.422 92.5938 155.422 97.25C155.422 101.906 153.766 105.891 150.453 109.203C147.172 112.484 143.203 114.125 138.547 114.125C133.891 114.125 129.906 112.484 126.594 109.203ZM124.203 82.9531C120.266 86.9219 118.297 91.6875 118.297 97.25C118.297 102.812 120.266 107.578 124.203 111.547C128.172 115.516 132.953 117.5 138.547 117.5C144.141 117.5 148.906 115.516 152.844 111.547C156.812 107.578 158.797 102.812 158.797 97.25C158.797 91.6875 156.812 86.9219 152.844 82.9531C148.906 78.9844 144.141 77 138.547 77C132.953 77 128.172 78.9844 124.203 82.9531ZM118.062 109.109C115.969 105.484 114.922 101.531 114.922 97.25C114.922 92.9688 115.969 89.0156 118.062 85.3906C120.188 81.7656 123.062 78.9062 126.688 76.8125C130.312 74.6875 134.266 73.625 138.547 73.625C142.828 73.625 146.781 74.6875 150.406 76.8125C154.031 78.9062 156.891 81.7656 158.984 85.3906C161.109 89.0156 162.172 92.9688 162.172 97.25C162.172 101.531 161.109 105.484 158.984 109.109C156.891 112.734 154.031 115.609 150.406 117.734C146.781 119.828 142.828 120.875 138.547 120.875C134.266 120.875 130.312 119.828 126.688 117.734C123.062 115.609 120.188 112.734 118.062 109.109ZM113.656 86.7969C112.25 90.1094 111.547 93.5938 111.547 97.25C111.547 100.906 112.25 104.406 113.656 107.75C115.094 111.062 117.016 113.938 119.422 116.375C121.859 118.781 124.734 120.703 128.047 122.141C131.391 123.547 134.891 124.25 138.547 124.25C142.203 124.25 145.688 123.547 149 122.141C152.344 120.703 155.219 118.781 157.625 116.375C160.062 113.938 161.984 111.062 163.391 107.75C164.828 104.406 165.547 100.906 165.547 97.25C165.547 93.5938 164.828 90.1094 163.391 86.7969C161.984 83.4531 160.062 80.5781 157.625 78.1719C155.219 75.7344 152.344 73.8125 149 72.4062C145.688 70.9688 142.203 70.25 138.547 70.25C134.891 70.25 131.391 70.9688 128.047 72.4062C124.734 73.8125 121.859 75.7344 119.422 78.1719C117.016 80.5781 115.094 83.4531 113.656 86.7969ZM110.562 109.062C108.969 105.312 108.172 101.375 108.172 97.25C108.172 93.125 108.969 89.1875 110.562 85.4375C112.188 81.6875 114.344 78.4688 117.031 75.7812C119.75 73.0625 122.984 70.9062 126.734 69.3125C130.484 67.6875 134.422 66.875 138.547 66.875C142.672 66.875 146.609 67.6875 150.359 69.3125C154.109 70.9062 157.328 73.0625 160.016 75.7812C162.734 78.4688 164.891 81.6875 166.484 85.4375C168.109 89.1875 168.922 93.125 168.922 97.25C168.922 101.375 168.109 105.312 166.484 109.062C164.891 112.812 162.734 116.047 160.016 118.766C157.328 121.453 154.109 123.609 150.359 125.234C146.609 126.828 142.672 127.625 138.547 127.625C134.422 127.625 130.484 126.828 126.734 125.234C122.984 123.609 119.75 121.453 117.031 118.766C114.344 116.047 112.188 112.812 110.562 109.062ZM107.469 84.1719C105.688 88.3281 104.797 92.6875 104.797 97.25C104.797 101.812 105.688 106.188 107.469 110.375C109.25 114.531 111.641 118.125 114.641 121.156C117.672 124.156 121.266 126.547 125.422 128.328C129.609 130.109 133.984 131 138.547 131C143.109 131 147.469 130.109 151.625 128.328C155.812 126.547 159.406 124.156 162.406 121.156C165.438 118.125 167.844 114.531 169.625 110.375C171.406 106.188 172.297 101.812 172.297 97.25C172.297 92.6875 171.406 88.3281 169.625 84.1719C167.844 79.9844 165.438 76.3906 162.406 73.3906C159.406 70.3594 155.812 67.9531 151.625 66.1719C147.469 64.3906 143.109 63.5 138.547 63.5C133.984 63.5 129.609 64.3906 125.422 66.1719C121.266 67.9531 117.672 70.3594 114.641 73.3906C111.641 76.3906 109.25 79.9844 107.469 84.1719ZM104.375 111.688C102.406 107.094 101.422 102.281 101.422 97.25C101.422 92.2188 102.406 87.4219 104.375 82.8594C106.344 78.2656 108.984 74.3125 112.297 71C115.609 67.6875 119.547 65.0469 124.109 63.0781C128.703 61.1094 133.516 60.125 138.547 60.125C143.578 60.125 148.375 61.1094 152.938 63.0781C157.531 65.0469 161.484 67.6875 164.797 71C168.109 74.3125 170.75 78.2656 172.719 82.8594C174.688 87.4219 175.672 92.2188 175.672 97.25C175.672 102.281 174.688 107.094 172.719 111.688C170.75 116.25 168.109 120.188 164.797 123.5C161.484 126.812 157.531 129.453 152.938 131.422C148.375 133.391 143.578 134.375 138.547 134.375C133.516 134.375 128.703 133.391 124.109 131.422C119.547 129.453 115.609 126.812 112.297 123.5C108.984 120.188 106.344 116.25 104.375 111.688ZM236.516 103.766L233.141 97.625V63.5H236.516V103.766ZM243.266 115.438L239.891 109.719V63.5H243.266V115.438ZM196.766 90.7344L200.141 96.875V131H196.766V90.7344ZM190.016 78.5938L193.391 84.7812V131H190.016V78.5938ZM191.188 63.5H195.125L234.219 131H230.281L191.188 63.5ZM199.156 63.5H203.141L242.188 131H238.156L199.156 63.5ZM207.078 63.5H211.016L246.641 125.141V63.5H250.016V131H246.031L207.078 63.5ZM186.641 69.3125V131H183.266V63.5H187.297L226.25 131H222.359L186.641 69.3125ZM270.781 82.2031H274.156V131H270.781V82.2031ZM257.281 66.875V63.5H307.906V66.875H257.281ZM257.281 73.625V70.25H307.906V73.625H257.281ZM257.281 80.375V77H307.906V80.375H257.281ZM291.031 82.2031H294.406V131H291.031V82.2031ZM284.281 82.2031H287.656V131H284.281V82.2031ZM277.531 82.2031H280.906V131H277.531V82.2031ZM332.234 131H328.859V53.375H332.234V131ZM325.484 131H322.109V53.375H325.484V131ZM318.734 131H315.359V53.375H318.734V131ZM338.984 114.125H374.891V117.5H338.984V120.875H374.891V124.25H338.984V127.625H374.891V131H335.609V53.375H374.891V56.75H338.984V60.125H374.891V63.5H338.984V66.875H374.891V70.25H338.984V83.75H357.406V87.125H338.984V90.5H357.406V93.875H338.984V97.25H357.406V100.625H338.984V114.125ZM380.562 63.5H384.219L409.109 126.453L434 63.5H437.609L410.938 131H407.281L380.562 63.5ZM387.828 63.5H391.438L411.453 114.125L409.531 118.438L387.828 63.5ZM395.094 63.5H398.75L415.062 104.891L413.281 109.531L395.094 63.5ZM402.359 63.5H405.969L418.625 95.5156L416.844 100.25L402.359 63.5ZM455.75 63.5H459.406L432.688 131H429.078L455.75 63.5ZM448.531 63.5H452.141L425.422 131H421.812L448.531 63.5ZM441.219 63.5H444.875L418.156 131H414.547L441.219 63.5ZM482.234 131H478.859V63.5H482.234V131ZM475.484 131H472.109V63.5H475.484V131ZM468.734 131H465.359V63.5H468.734V131ZM488.984 114.125H521.281V117.5H488.984V120.875H521.281V124.25H488.984V127.625H521.281V131H485.609V63.5H521.281V66.875H488.984V70.25H521.281V73.625H488.984V77H521.281V80.375H488.984V88.7656H519.406V92.1406H488.984V95.5156H519.406V98.8906H488.984V102.266H519.406V105.641H488.984V114.125ZM582.641 103.766L579.266 97.625V63.5H582.641V103.766ZM589.391 115.438L586.016 109.719V63.5H589.391V115.438ZM542.891 90.7344L546.266 96.875V131H542.891V90.7344ZM536.141 78.5938L539.516 84.7812V131H536.141V78.5938ZM537.312 63.5H541.25L580.344 131H576.406L537.312 63.5ZM545.281 63.5H549.266L588.312 131H584.281L545.281 63.5ZM553.203 63.5H557.141L592.766 125.141V63.5H596.141V131H592.156L553.203 63.5ZM532.766 69.3125V131H529.391V63.5H533.422L572.375 131H568.484L532.766 69.3125ZM616.906 82.2031H620.281V131H616.906V82.2031ZM603.406 66.875V63.5H654.031V66.875H603.406ZM603.406 73.625V70.25H654.031V73.625H603.406ZM603.406 80.375V77H654.031V80.375H603.406ZM637.156 82.2031H640.531V131H637.156V82.2031ZM630.406 82.2031H633.781V131H630.406V82.2031ZM623.656 82.2031H627.031V131H623.656V82.2031ZM692.516 98.8906H687.172C680.609 98.8906 675.562 97.5625 672.031 94.9062C668.5 92.2188 666.734 88.5312 666.734 83.8438C666.734 79.4688 668.812 75.8281 672.969 72.9219C677.125 69.9844 682.953 68.5156 690.453 68.5156C695.453 68.5156 700.109 69.2031 704.422 70.5781C708.766 71.9531 712.375 73.8906 715.25 76.3906L712.625 78.5C710.062 76.4062 706.844 74.7812 702.969 73.625C699.094 72.4688 694.922 71.8906 690.453 71.8906C683.859 71.8906 678.812 73.0156 675.312 75.2656C671.844 77.5156 670.109 80.375 670.109 83.8438C670.109 87.5938 671.531 90.4844 674.375 92.5156C677.25 94.5156 681.516 95.5156 687.172 95.5156H692.328C698.984 95.5156 704.078 96.8594 707.609 99.5469C711.172 102.203 712.953 105.875 712.953 110.562C712.953 114.938 710.875 118.594 706.719 121.531C702.562 124.438 696.734 125.891 689.234 125.891C684.234 125.891 679.562 125.203 675.219 123.828C670.906 122.453 667.312 120.516 664.438 118.016L667.062 115.906C669.625 118 672.844 119.625 676.719 120.781C680.594 121.938 684.766 122.516 689.234 122.516C695.828 122.516 700.859 121.391 704.328 119.141C707.828 116.891 709.578 114.031 709.578 110.562C709.578 106.812 708.141 103.938 705.266 101.938C702.422 99.9062 698.172 98.8906 692.516 98.8906ZM692.516 105.641H687.172C678.484 105.641 671.781 103.672 667.062 99.7344C662.344 95.7656 659.984 90.4688 659.984 83.8438C659.984 80.8125 660.656 77.9688 662 75.3125C663.344 72.6562 665.266 70.3281 667.766 68.3281C670.297 66.2969 673.516 64.7031 677.422 63.5469C681.328 62.3594 685.672 61.7656 690.453 61.7656C696.484 61.7656 702.125 62.6875 707.375 64.5312C712.625 66.3438 717 68.8906 720.5 72.1719L717.781 74.1875C714.594 71.3125 710.609 69.0938 705.828 67.5312C701.047 65.9375 695.922 65.1406 690.453 65.1406C682.016 65.1406 675.391 66.9219 670.578 70.4844C665.766 74.0469 663.359 78.5 663.359 83.8438C663.359 89.5 665.422 93.9844 669.547 97.2969C673.672 100.609 679.547 102.266 687.172 102.266H692.328C701.578 102.266 706.203 105.031 706.203 110.562C706.203 113.062 704.781 115.125 701.938 116.75C699.125 118.344 694.891 119.141 689.234 119.141C685.266 119.141 681.578 118.688 678.172 117.781C674.766 116.844 671.953 115.516 669.734 113.797L672.406 111.734C676.312 114.422 681.922 115.766 689.234 115.766C693.922 115.766 697.359 115.281 699.547 114.312C701.734 113.344 702.828 112.094 702.828 110.562C702.828 108.781 702.062 107.516 700.531 106.766C699 106.016 696.328 105.641 692.516 105.641ZM692.516 92.1406H687.172C678.047 92.1406 673.484 89.375 673.484 83.8438C673.484 81.3438 674.891 79.2969 677.703 77.7031C680.547 76.0781 684.797 75.2656 690.453 75.2656C694.422 75.2656 698.109 75.7344 701.516 76.6719C704.922 77.5781 707.734 78.8906 709.953 80.6094L707.281 82.6719C703.375 79.9844 697.766 78.6406 690.453 78.6406C685.766 78.6406 682.328 79.125 680.141 80.0938C677.953 81.0625 676.859 82.3125 676.859 83.8438C676.859 85.625 677.625 86.8906 679.156 87.6406C680.688 88.3906 683.359 88.7656 687.172 88.7656H692.516C701.203 88.7656 707.906 90.75 712.625 94.7188C717.344 98.6562 719.703 103.938 719.703 110.562C719.703 113.594 719.031 116.438 717.688 119.094C716.344 121.75 714.406 124.094 711.875 126.125C709.375 128.125 706.172 129.719 702.266 130.906C698.359 132.062 694.016 132.641 689.234 132.641C683.203 132.641 677.562 131.734 672.312 129.922C667.062 128.078 662.688 125.516 659.188 122.234L661.906 120.219C665.094 123.094 669.078 125.328 673.859 126.922C678.641 128.484 683.766 129.266 689.234 129.266C697.672 129.266 704.297 127.484 709.109 123.922C713.922 120.359 716.328 115.906 716.328 110.562C716.328 104.906 714.266 100.422 710.141 97.1094C706.016 93.7969 700.141 92.1406 692.516 92.1406Z" fill="#c26a0c"/>
</svg>
