<svg width="150" height="154" viewBox="0 0 150 154" fill="none" xmlns="http://www.w3.org/2000/svg">
<path d="M100.938 56.875L97.25 59.3125C95 55.9792 92.0625 53.3542 88.4375 51.4375C84.8542 49.4792 80.9583 48.5 76.75 48.5C69.9167 48.5 64.0833 50.9167 59.25 55.75C54.4167 60.5833 52 66.4167 52 73.25C52 80.0833 54.4167 85.9167 59.25 90.75C64.0833 95.5833 69.9167 98 76.75 98C80.9583 98 84.8542 97.0208 88.4375 95.0625C92.0625 93.1042 95 90.4583 97.25 87.125L100.875 89.75C98.2083 93.6667 94.75 96.7708 90.5 99.0625C86.25 101.354 81.6667 102.5 76.75 102.5C72.7917 102.5 69 101.729 65.375 100.188C61.7917 98.6458 58.6875 96.5625 56.0625 93.9375C53.4375 91.3125 51.3542 88.2083 49.8125 84.625C48.2708 81 47.5 77.2083 47.5 73.25C47.5 69.2917 48.2708 65.5208 49.8125 61.9375C51.3542 58.3125 53.4375 55.1875 56.0625 52.5625C58.6875 49.9375 61.7917 47.8542 65.375 46.3125C69 44.7708 72.7917 44 76.75 44C81.7083 44 86.3125 45.1667 90.5625 47.5C94.8125 49.7917 98.2708 52.9167 100.938 56.875ZM108.375 51.75L104.625 54.1875C101.542 49.6875 97.5417 46.125 92.625 43.5C87.75 40.8333 82.4583 39.5 76.75 39.5C70.625 39.5 64.9792 41.0208 59.8125 44.0625C54.6458 47.0625 50.5417 51.1458 47.5 56.3125C44.5 61.4792 43 67.125 43 73.25C43 79.375 44.5 85.0208 47.5 90.1875C50.5417 95.3542 54.6458 99.4583 59.8125 102.5C64.9792 105.5 70.625 107 76.75 107C82.4583 107 87.7708 105.667 92.6875 103C97.6042 100.333 101.604 96.7292 104.688 92.1875L108.375 94.75C104.875 99.9167 100.333 104 94.75 107C89.2083 110 83.2083 111.5 76.75 111.5C69.8333 111.5 63.4375 109.792 57.5625 106.375C51.6875 102.958 47.0417 98.3125 43.625 92.4375C40.2083 86.5625 38.5 80.1667 38.5 73.25C38.5 66.3333 40.2083 59.9375 43.625 54.0625C47.0417 48.1875 51.6875 43.5417 57.5625 40.125C63.4375 36.7083 69.8333 35 76.75 35C83.2083 35 89.2083 36.5 94.75 39.5C100.333 42.5 104.875 46.5833 108.375 51.75ZM115.875 46.75L112.125 49.1875C108.208 43.4375 103.125 38.8958 96.875 35.5625C90.6667 32.1875 83.9583 30.5 76.75 30.5C70.9583 30.5 65.4167 31.625 60.125 33.875C54.8333 36.125 50.2708 39.1667 46.4375 43C42.6458 46.7917 39.625 51.3333 37.375 56.625C35.125 61.9167 34 67.4583 34 73.25C34 79.0417 35.125 84.5833 37.375 89.875C39.625 95.1667 42.6458 99.7292 46.4375 103.562C50.2708 107.354 54.8333 110.375 60.125 112.625C65.4167 114.875 70.9583 116 76.75 116C84 116 90.7292 114.312 96.9375 110.938C103.146 107.562 108.208 103 112.125 97.25L115.75 99.9375C111.417 106.271 105.812 111.292 98.9375 115C92.1042 118.667 84.7083 120.5 76.75 120.5C68.2083 120.5 60.3125 118.396 53.0625 114.188C45.8125 109.938 40.0625 104.188 35.8125 96.9375C31.6042 89.6875 29.5 81.7917 29.5 73.25C29.5 64.7083 31.6042 56.8125 35.8125 49.5625C40.0625 42.3125 45.8125 36.5833 53.0625 32.375C60.3125 28.125 68.2083 26 76.75 26C84.75 26 92.1875 27.875 99.0625 31.625C105.938 35.3333 111.542 40.375 115.875 46.75ZM123.25 41.625L119.5 44.0625C114.75 37.1042 108.604 31.6042 101.062 27.5625C93.5625 23.5208 85.4583 21.5 76.75 21.5C69.75 21.5 63.0417 22.875 56.625 25.625C50.25 28.3333 44.75 32 40.125 36.625C35.5 41.25 31.8125 46.7708 29.0625 53.1875C26.3542 59.5625 25 66.25 25 73.25C25 80.25 26.3542 86.9583 29.0625 93.375C31.8125 99.75 35.5 105.25 40.125 109.875C44.75 114.5 50.25 118.188 56.625 120.938C63.0417 123.646 69.75 125 76.75 125C85.4583 125 93.5833 122.958 101.125 118.875C108.667 114.792 114.812 109.271 119.562 102.312L123.188 105.062C118.021 112.562 111.354 118.521 103.188 122.938C95.0208 127.312 86.2083 129.5 76.75 129.5C69.125 129.5 61.8333 128 54.875 125C47.9583 122.042 41.9792 118.062 36.9375 113.062C31.9375 108.021 27.9375 102.042 24.9375 95.125C21.9792 88.1667 20.5 80.875 20.5 73.25C20.5 65.625 21.9792 58.3542 24.9375 51.4375C27.9375 44.4792 31.9375 38.5 36.9375 33.5C41.9792 28.4583 47.9583 24.4583 54.875 21.5C61.8333 18.5 69.125 17 76.75 17C86.25 17 95.0833 19.2083 103.25 23.625C111.417 28.0417 118.083 34.0417 123.25 41.625Z" fill="#C26A0C"/>
</svg>
